<svg width="821" height="188" viewBox="0 0 821 188" fill="none" xmlns="http://www.w3.org/2000/svg">
<path d="M0.927063 4.15166H70.3153C92.9419 4.15166 109.954 8.07877 121.351 15.933C132.916 23.7873 138.698 35.9863 138.698 52.5303C138.698 59.8833 137.189 66.317 134.173 71.8317C131.156 77.1793 126.714 81.4406 120.848 84.6157C115.15 87.7907 108.194 89.7126 99.9813 90.381V89.8797C114.898 90.8823 126.295 95.1437 134.173 102.664C142.218 110.184 146.24 120.294 146.24 132.994C146.24 149.371 140.458 161.654 128.893 169.842C117.496 178.031 100.819 182.125 78.8631 182.125H0.927063V4.15166ZM77.1033 151.042C86.4892 151.042 93.9475 149.121 99.4785 145.277C105.009 141.433 107.775 135.835 107.775 128.482C107.775 121.129 105.009 115.448 99.4785 111.437C93.9475 107.426 86.4892 105.421 77.1033 105.421H39.1409V151.042H77.1033ZM69.3097 77.8477C78.8631 77.8477 86.4053 76.0094 91.9363 72.333C97.4672 68.6566 100.233 63.3926 100.233 56.541C100.233 49.188 97.5511 43.8406 92.1877 40.4983C86.8243 36.989 79.1984 35.2343 69.3097 35.2343H39.1409V77.8477H69.3097ZM170.155 4.15166H248.343C261.249 4.15166 272.562 6.3241 282.283 10.669C292.003 15.0139 299.463 21.197 304.658 29.2183C309.853 37.2397 312.451 46.598 312.451 57.293C312.451 65.3143 310.776 72.5837 307.423 79.101C304.071 85.4513 299.378 90.6317 293.345 94.6423C287.311 98.653 280.438 101.16 272.729 102.162L271.975 99.9063C283.875 99.9063 292.926 102.497 299.127 107.677C305.328 112.69 308.847 120.461 309.686 130.989L314.211 182.125H275.243L271.975 137.005C271.472 129.986 269.294 124.889 265.438 121.714C261.583 118.539 255.215 116.952 246.331 116.952H208.369V182.125H170.155V4.15166ZM244.069 85.117C253.286 85.117 260.41 83.028 265.438 78.8503C270.633 74.5054 273.232 68.406 273.232 60.5517C273.232 52.5303 270.633 46.5143 265.438 42.5037C260.243 38.326 252.701 36.237 242.812 36.237H208.369V85.117H244.069ZM407.801 186.136C392.717 186.136 379.644 183.378 368.582 177.864C357.687 172.349 349.224 164.411 343.19 154.05C337.156 143.689 334.139 131.657 334.139 117.954V3.90099H372.353V117.954C372.353 129.485 375.37 138.425 381.404 144.776C387.604 150.959 396.404 154.05 407.801 154.05C419.03 154.05 427.662 150.959 433.696 144.776C439.897 138.425 442.998 129.485 442.998 117.954V3.90099H481.212V117.954C481.212 131.657 478.195 143.689 472.161 154.05C466.295 164.411 457.747 172.349 446.518 177.864C435.456 183.378 422.55 186.136 407.801 186.136ZM548.872 36.237H495.322V4.15166H640.635V36.237H587.337V182.125H548.872V36.237ZM732.218 186.136C714.453 186.136 698.948 182.376 685.708 174.856C672.635 167.336 662.663 156.641 655.79 142.77C648.918 128.733 645.483 112.273 645.483 93.389C645.483 74.5054 648.918 58.045 655.79 44.0077C662.663 29.9703 672.635 19.1917 685.708 11.6717C698.948 3.98456 714.453 0.140991 732.218 0.140991C750.152 0.140991 765.655 3.98456 778.728 11.6717C791.802 19.1917 801.773 29.9703 808.646 44.0077C815.685 58.045 819.205 74.5054 819.205 93.389C819.205 112.273 815.685 128.733 808.646 142.77C801.773 156.641 791.802 167.336 778.728 174.856C765.655 182.376 750.152 186.136 732.218 186.136ZM732.218 154.05C742.107 154.05 750.571 151.711 757.61 147.032C764.817 142.185 770.348 135.25 774.203 126.226C778.059 117.035 779.985 106.089 779.985 93.389C779.985 80.6886 778.059 69.7427 774.203 60.5517C770.348 51.3606 764.817 44.3419 757.61 39.4957C750.571 34.6494 742.107 32.2263 732.218 32.2263C722.329 32.2263 713.781 34.6494 706.575 39.4957C699.535 44.3419 694.089 51.3606 690.233 60.5517C686.547 69.7427 684.702 80.6886 684.702 93.389C684.702 106.089 686.547 117.035 690.233 126.226C694.089 135.25 699.535 142.185 706.575 147.032C713.781 151.711 722.329 154.05 732.218 154.05Z" fill="black" style="mix-blend-mode:difference"/>
</svg>
