<svg width="822" height="186" viewBox="0 0 822 186" fill="none" xmlns="http://www.w3.org/2000/svg">
<path d="M0 4.01078H69.7039C92.4334 4.01078 109.523 7.938 120.972 15.7924C132.589 23.647 138.398 35.8464 138.398 52.3908C138.398 59.744 136.882 66.1779 133.852 71.6927C130.821 77.0405 126.359 81.302 120.466 84.4771C114.742 87.6522 107.755 89.5742 99.5048 90.2426V89.7412C114.49 90.7439 125.938 95.0054 133.852 102.526C141.933 110.046 145.974 120.156 145.974 132.857C145.974 149.235 140.165 161.518 128.548 169.706C117.099 177.895 100.347 181.989 78.2906 181.989H0V4.01078ZM76.5227 150.906C85.9514 150.906 93.4436 148.984 98.9997 145.14C104.556 141.296 107.334 135.698 107.334 128.345C107.334 120.992 104.556 115.31 98.9997 111.299C93.4436 107.288 85.9514 105.283 76.5227 105.283H38.3876V150.906H76.5227ZM68.6937 77.7089C78.2906 77.7089 85.8671 75.8706 91.4232 72.1941C96.9793 68.5176 99.7574 63.2534 99.7574 56.4016C99.7574 49.0485 97.0636 43.7009 91.6758 40.3585C86.288 36.8491 78.6274 35.0943 68.6937 35.0943H38.3876V77.7089H68.6937ZM169.998 4.01078H248.541C261.506 4.01078 272.871 6.18328 282.635 10.5283C292.4 14.8733 299.894 21.0566 305.112 29.0782C310.331 37.0997 312.941 46.4583 312.941 57.1536C312.941 65.1752 311.258 72.4447 307.89 78.9623C304.522 85.3127 299.809 90.4933 293.748 94.504C287.686 98.5148 280.783 101.022 273.038 102.024L272.281 99.7682C284.236 99.7682 293.327 102.359 299.556 107.539C305.785 112.553 309.321 120.323 310.163 130.852L314.709 181.989H275.564L272.281 136.868C271.776 129.849 269.588 124.752 265.714 121.577C261.841 118.402 255.445 116.814 246.521 116.814H208.386V181.989H169.998V4.01078ZM244.248 84.9784C253.507 84.9784 260.663 82.8894 265.714 78.7116C270.933 74.3665 273.544 68.2669 273.544 60.4124C273.544 52.3908 270.933 46.3747 265.714 42.3639C260.496 38.1861 252.919 36.097 242.985 36.097H208.386V84.9784H244.248ZM408.725 186C393.572 186 380.439 183.243 369.327 177.728C358.383 172.213 349.881 164.275 343.82 153.914C337.758 143.553 334.728 131.52 334.728 117.817V3.76011H373.115V117.817C373.115 129.348 376.146 138.288 382.207 144.639C388.436 150.822 397.275 153.914 408.725 153.914C420.005 153.914 428.677 150.822 434.738 144.639C440.967 138.288 444.082 129.348 444.082 117.817V3.76011H482.47V117.817C482.47 131.52 479.439 143.553 473.378 153.914C467.484 164.275 458.898 172.213 447.618 177.728C436.506 183.243 423.541 186 408.725 186ZM550.437 36.097H496.644V4.01078H642.618V36.097H589.078V181.989H550.437V36.097ZM734.618 186C716.771 186 701.196 182.24 687.896 174.72C674.763 167.199 664.746 156.504 657.842 142.633C650.939 128.596 647.488 112.135 647.488 93.2507C647.488 74.3665 650.939 57.9057 657.842 43.8679C664.746 29.8302 674.763 19.0512 687.896 11.531C701.196 3.84368 716.771 0 734.618 0C752.633 0 768.207 3.84368 781.339 11.531C794.472 19.0512 804.489 29.8302 811.393 43.8679C818.464 57.9057 822 74.3665 822 93.2507C822 112.135 818.464 128.596 811.393 142.633C804.489 156.504 794.472 167.199 781.339 174.72C768.207 182.24 752.633 186 734.618 186ZM734.618 153.914C744.552 153.914 753.054 151.574 760.125 146.895C767.364 142.048 772.92 135.113 776.794 126.089C780.667 116.898 782.602 105.951 782.602 93.2507C782.602 80.5499 780.667 69.6037 776.794 60.4124C772.92 51.2211 767.364 44.2022 760.125 39.3558C753.054 34.5094 744.552 32.0863 734.618 32.0863C724.683 32.0863 716.097 34.5094 708.857 39.3558C701.786 44.2022 696.315 51.2211 692.442 60.4124C688.738 69.6037 686.886 80.5499 686.886 93.2507C686.886 105.951 688.738 116.898 692.442 126.089C696.315 135.113 701.786 142.048 708.857 146.895C716.097 151.574 724.683 153.914 734.618 153.914Z" fill="white" style="mix-blend-mode:difference"/>
</svg>
